<?xml version="1.0" encoding="UTF-8"?>
<svg id="Layer_2" data-name="Layer 2" xmlns="http://www.w3.org/2000/svg" xmlns:xlink="http://www.w3.org/1999/xlink" viewBox="0 0 548.13 154.43">
  <defs>
    <style>
      .cls-1 {
        fill: #1c3048;
      }

      .cls-2 {
        fill: url(#linear-gradient-2);
      }

      .cls-3 {
        fill: #00aef2;
      }

      .cls-4 {
        fill: url(#linear-gradient);
      }
    </style>
    <linearGradient id="linear-gradient" x1="0" y1="34.52" x2="115.73" y2="34.52" gradientUnits="userSpaceOnUse">
      <stop offset="0" stop-color="#00045d"/>
      <stop offset=".37" stop-color="#0580c5"/>
      <stop offset=".65" stop-color="#4cb4df"/>
      <stop offset="1" stop-color="#71cbef"/>
    </linearGradient>
    <linearGradient id="linear-gradient-2" x1="130.27" y1="45.47" x2="34.12" y2="169.67" xlink:href="#linear-gradient"/>
  </defs>
  <g id="RATIO_Winner_Concepts" data-name="RATIO Winner Concepts">
    <g id="Layer_245" data-name="Layer 245">
      <g>
        <ellipse class="cls-3" cx="514.25" cy="62.76" rx="3.68" ry="3.96"/>
        <path class="cls-1" d="M451.12,103.19h-12.52c-1.5,0-2.72-1.31-2.72-2.93s1.22-2.93,2.72-2.93h12.52c2.94,0,5.61-1.75,6.96-4.55l14.31-29.76c1.26-2.61,3.73-4.23,6.47-4.23s5.21,1.62,6.46,4.22l13.97,28.77c1.6,3.29,4.74,5.35,8.2,5.37,2.38,0,4.31-2.08,4.31-4.64v-21.07c0-1.62,1.22-2.93,2.72-2.93s2.72,1.31,2.72,2.93v21.07c0,5.79-4.38,10.49-9.77,10.49h-.01c-2.68-.01-5.31-.81-7.61-2.31-2.29-1.5-4.16-3.64-5.4-6.2l-13.98-28.79c-.46-.96-1.29-1.07-1.63-1.07s-1.17.1-1.63,1.07l-14.31,29.76c-1.12,2.33-2.81,4.28-4.89,5.64-2.08,1.36-4.47,2.08-6.91,2.08Z"/>
      </g>
      <g>
        <path class="cls-1" d="M135.87,149.26L190.14,12.55h14.57l53.1,136.7h-14.04l-15.1-42.45h-62.71l-16.05,42.45h-14.04ZM170.08,95.63h54.05l-26.82-69.98-27.24,69.98Z"/>
        <path class="cls-1" d="M292.75,149.26V23.62h-41.6v-11.07h96.71v11.07h-41.49v125.63h-13.62Z"/>
        <path class="cls-1" d="M369.19,149.26V12.55h13.62v136.7h-13.62Z"/>
        <path class="cls-1" d="M481.41,151.09c-14.92,0-27.34-3.01-37.27-9.04-9.92-6.03-17.37-14.3-22.33-24.83-4.96-10.53-7.44-22.6-7.44-36.21s2.48-25.7,7.44-36.26,12.4-18.87,22.33-24.93c9.92-6.06,22.35-9.09,37.27-9.09s27.2,3.03,37.06,9.09c9.85,6.06,17.26,14.37,22.22,24.93s7.44,22.65,7.44,36.26-2.48,25.68-7.44,36.21c-4.96,10.53-12.37,18.81-22.22,24.83-9.86,6.03-22.21,9.04-37.06,9.04ZM481.41,140.52c12.46,0,22.56-2.66,30.3-7.97,7.74-5.31,13.41-12.47,17-21.48,3.59-9,5.38-19.03,5.38-30.06s-1.79-21.16-5.38-30.16c-3.59-9-9.26-16.18-17-21.53-7.74-5.35-17.84-8.02-30.3-8.02s-22.68,2.68-30.46,8.02c-7.78,5.35-13.44,12.53-17,21.53-3.55,9.01-5.33,19.06-5.33,30.16s1.78,21.06,5.33,30.06c3.55,9.01,9.22,16.17,17,21.48,7.78,5.32,17.93,7.97,30.46,7.97Z"/>
      </g>
      <path class="cls-4" d="M111.3,69.04c2.83-6.15,4.43-12.95,4.43-20.08C115.73,22.03,93.7,0,66.77,0H0c0,39.98,7,35.98,35.61,35.61h16.63c2.96,0,7.52-.22,12.83,0h1.7c.93,0,1.84.1,2.72.28,15.86,1.4,35.93,7.61,41.81,33.15Z"/>
      <path class="cls-2" d="M79.9,96.15c13.77-3.93,25.38-14.04,31.4-27.11-5.88-25.54-25.95-31.75-41.81-33.15,6.05,1.27,10.63,6.66,10.63,13.07,0,7.34-5,13.06-13.35,13.35-35.4,1.26-44.28,25.75-37.47,33.37,2.47,2.76,4.95,5.11,6.75,6.91,5.15,5.15,41.64,41.31,41.64,41.31,13.8,14.02,36.28,14.02,50.3,0l-48.1-47.77Z"/>
    </g>
  </g>
</svg>